<svg width="0" height="0" class="hidden">
  <symbol xmlns="http://www.w3.org/2000/svg" fill="none" viewBox="0 0 19 16" id="footer-telegram-icon">
    <path fill="#83B3D3" d="M17.29.1 1.34 6.25c-1.09.43-1.08 1.04-.2 1.31l4.1 1.28 9.47-5.98c.44-.27.85-.12.52.18L7.55 9.96l-.28 4.22c.41 0 .6-.19.83-.41l1.99-1.93 4.13 3.05c.77.42 1.31.2 1.5-.7l2.72-12.8C18.72.27 18-.23 17.29.09Z"></path>
  </symbol>
  <symbol xmlns="http://www.w3.org/2000/svg" fill="none" viewBox="0 0 25 14" id="footer-vk-icon">
    <path fill="#83B3D3" fill-rule="evenodd" d="M23.95.95c.17-.55 0-.95-.8-.95h-2.62c-.67 0-.98.35-1.14.73 0 0-1.34 3.2-3.23 5.27-.61.6-.89.8-1.22.8-.17 0-.42-.2-.42-.74V.95c0-.66-.19-.95-.74-.95H9.65c-.42 0-.67.3-.67.6 0 .61.95.76 1.05 2.5v3.8c0 .84-.16.99-.5.99-.88 0-3.05-3.21-4.33-6.89-.25-.71-.5-1-1.17-1H1.4C.65 0 .5.35.5.73c0 .68.89 4.07 4.14 8.55C6.81 12.34 9.87 14 12.65 14c1.67 0 1.88-.37 1.88-1v-2.32c0-.73.16-.88.68-.88.4 0 1.06.2 2.62 1.67C19.61 13.22 19.9 14 20.9 14h2.63c.75 0 1.13-.37.91-1.1-.24-.72-1.09-1.77-2.22-3.02-.6-.7-1.53-1.47-1.8-1.86-.4-.49-.28-.7 0-1.14 0 0 3.2-4.43 3.53-5.93Z" clip-rule="evenodd"></path>
  </symbol>
  <symbol xmlns="http://www.w3.org/2000/svg" fill="none" viewBox="0 0 23 18" id="footer-youtube-icon">
    <path fill="#83B3D3" d="M19.1.5H3.68C1.81.5.5 2.1.5 3.9V14c0 1.9 1.31 3.5 3.17 3.5h15.66c1.64 0 3.17-1.6 3.17-3.4V3.9C22.28 2.1 20.97.5 19.1.5ZM8.17 13.04V4.96L15.5 9l-7.34 4.04Z"></path>
  </symbol>
</svg>
